HIERARCHY
ROOT Hips
{
	OFFSET 0.000000 0.000000 0.000000
	CHANNELS 6 Xposition Yposition Zposition Zrotation Yrotation Xrotation 
	JOINT LowerBack
	{
		OFFSET 0.000000 0.000000 0.000000
		CHANNELS 3 Zrotation Yrotation Xrotation
		JOINT Spine
		{
			OFFSET 0.028270 2.035590 -0.193380
			CHANNELS 3 Zrotation Yrotation Xrotation
			JOINT Spine1
			{
				OFFSET 0.056720 2.048850 -0.042750
				CHANNELS 3 Zrotation Yrotation Xrotation
				JOINT Neck
				{
					OFFSET 0.000000 0.000000 0.000000
					CHANNELS 3 Zrotation Yrotation Xrotation
					JOINT Neck1
					{
						OFFSET -0.054170 1.746240 0.172020
						CHANNELS 3 Zrotation Yrotation Xrotation
						JOINT Head
						{
							OFFSET 0.104070 1.761360 -0.123970
							CHANNELS 3 Zrotation Yrotation Xrotation
							End Site
							{
								OFFSET 0.000000 0.000000 0.000000
							}
						}
					}
				}
				JOINT LeftShoulder
				{
					OFFSET 0.000000 0.000000 0.000000
					CHANNELS 3 Zrotation Yrotation Xrotation
					JOINT LeftArm
					{
						OFFSET 3.362410 1.200890 -0.311210
						CHANNELS 3 Zrotation Yrotation Xrotation
						JOINT LeftForeArm
						{
							OFFSET 4.983000 -0.000000 -0.000000
							CHANNELS 3 Zrotation Yrotation Xrotation
							JOINT LeftHand
							{
								OFFSET 3.483560 -0.000000 -0.000000
								CHANNELS 3 Zrotation Yrotation Xrotation
								JOINT LeftFingerBase
								{
									OFFSET 0.000000 0.000000 0.000000
									CHANNELS 3 Zrotation Yrotation Xrotation
									JOINT LeftHandIndex1
									{
										OFFSET 0.715260 -0.000000 -0.000000
										CHANNELS 3 Zrotation Yrotation Xrotation
										End Site
										{
											OFFSET 0.000000 0.000000 0.000000
										}
									}
								}
								JOINT LThumb
								{
									OFFSET 0.000000 0.000000 0.000000
									CHANNELS 3 Zrotation Yrotation Xrotation
									End Site
									{
										OFFSET 0.000000 0.000000 0.000000
									}
								}
							}
						}
					}
				}
				JOINT RightShoulder
				{
					OFFSET 0.000000 0.000000 0.000000
					CHANNELS 3 Zrotation Yrotation Xrotation
					JOINT RightArm
					{
						OFFSET -3.136600 1.374050 -0.404650
						CHANNELS 3 Zrotation Yrotation Xrotation
						JOINT RightForeArm
						{
							OFFSET -5.241900 -0.000000 -0.000000
							CHANNELS 3 Zrotation Yrotation Xrotation
							JOINT RightHand
							{
								OFFSET -3.444170 -0.000000 -0.000000
								CHANNELS 3 Zrotation Yrotation Xrotation
								JOINT RightFingerBase
								{
									OFFSET 0.000000 0.000000 0.000000
									CHANNELS 3 Zrotation Yrotation Xrotation
									JOINT RightHandIndex1
									{
										OFFSET -0.622530 -0.000000 -0.000000
										CHANNELS 3 Zrotation Yrotation Xrotation
										End Site
										{
											OFFSET 0.000000 0.000000 0.000000
										}
									}
								}
								JOINT RThumb
								{
									OFFSET 0.000000 0.000000 0.000000
									CHANNELS 3 Zrotation Yrotation Xrotation
									End Site
									{
										OFFSET 0.000000 0.000000 0.000000
									}
								}
							}
						}
					}
				}
			}
		}
	}
}
}
MOTION
Frames: 9
Frame Time: 0.008333
-2.174459 17.188346 -0.871877 -138.621624 84.555796 -107.986322 -1.643775 1.664365 10.292246 -0.908183 2.000781 -1.274963 -4.430533 2.033270 -1.819874 5.597700 -7.440934 -5.437702 0.075371 -0.006637 0.225946 0.000000 0.000000 0.000000 7.522502 16.844753 0.907066 -59.817349 45.872413 38.079726 -179.922805 -85.859565 -179.999105 -0.242817 2.061055 -0.004400 0.013894 0.046354 0.000000 0.000000 0.000000 0.000000 0.000000 0.000000 0.000000 -7.281594 -0.465494 -1.914290 65.900892 7.060849 15.599105 179.856574 72.532159 179.916478 -11.159851 5.253294 -0.578203 0.226532 -0.554626 -0.000000 0.000000 0.000000 0.000000 0.000000 0.000000 0.000000 
-1.971754 17.175011 -0.904699 -138.940185 84.305389 -108.474052 -1.724462 1.664819 10.348911 -0.919741 2.010996 -1.257015 -4.436054 2.047273 -1.772983 5.600533 -7.498920 -5.483505 0.075573 -0.005830 0.213763 0.000000 0.000000 0.000000 7.629873 17.118893 0.910198 -60.429913 45.310909 37.736402 -179.909698 -85.428109 -179.999181 -0.125839 1.810449 -0.002085 0.014770 0.056149 0.000000 0.000000 0.000000 0.000000 0.000000 0.000000 0.000000 -7.373542 -0.508492 -1.958969 66.031748 6.763496 15.716039 179.865966 72.145335 179.917139 -11.026741 5.327285 -0.578709 0.222420 -0.557295 -0.000000 0.000000 0.000000 0.000000 0.000000 0.000000 0.000000 
-1.769027 17.150011 -0.937607 -138.922603 84.061555 -108.622976 -1.790999 1.668865 10.388481 -0.927918 2.024577 -1.240505 -4.441109 2.064620 -1.716033 5.596747 -7.557585 -5.535236 0.075065 -0.004978 0.200067 0.000000 0.000000 0.000000 7.729746 17.376693 0.927029 -61.142504 44.644220 37.289949 -179.900780 -85.100180 -179.999255 -0.046110 1.542750 -0.000672 0.016197 0.066749 0.000000 0.000000 0.000000 0.000000 0.000000 0.000000 0.000000 -7.471276 -0.552019 -2.004794 66.233692 6.454741 15.837929 179.878255 71.821629 179.917914 -10.872811 5.444899 -0.582314 0.217104 -0.560741 -0.000000 0.000000 0.000000 0.000000 0.000000 0.000000 0.000000 
-1.566591 17.113059 -0.970890 -138.512312 83.825545 -108.378639 -1.837940 1.677676 10.412173 -0.931429 2.042311 -1.225121 -4.443813 2.086015 -1.649958 5.579487 -7.614435 -5.592877 0.074888 -0.004002 0.184820 0.000000 0.000000 0.000000 7.820308 17.614113 0.958584 -61.963740 43.893730 36.714183 -179.895545 -84.880906 -179.999285 -0.025741 1.253464 -0.000363 0.018564 0.078164 0.000000 0.000000 0.000000 0.000000 0.000000 0.000000 0.000000 -7.585029 -0.592065 -2.051627 66.510033 6.139634 15.961397 179.893464 71.571517 179.918836 -10.691110 5.609099 -0.588424 0.210335 -0.564995 -0.000000 0.000000 0.000000 0.000000 0.000000 0.000000 0.000000 
-1.364612 17.063900 -1.004737 -137.664278 83.596479 -107.687983 -1.860509 1.691212 10.411737 -0.929449 2.063633 -1.213336 -4.443725 2.110732 -1.577899 5.544847 -7.661599 -5.655220 0.074982 -0.002942 0.168533 0.000000 0.000000 0.000000 7.889285 17.825060 1.004125 -62.887644 43.092678 35.980830 -179.892814 -84.759231 -179.999228 -0.082275 0.933380 -0.000659 0.022128 0.090480 0.000000 0.000000 0.000000 0.000000 0.000000 0.000000 0.000000 -7.718636 -0.618905 -2.098656 66.860372 5.818921 16.081198 179.911195 71.401958 179.919920 -10.477834 5.821864 -0.596837 0.202018 -0.570077 -0.000000 0.000000 0.000000 0.000000 0.000000 0.000000 0.000000 
-1.163613 17.002747 -1.039201 -136.445290 83.375099 -106.624404 -1.861323 1.706563 10.396923 -0.922743 2.085475 -1.203546 -4.440963 2.135675 -1.502807 5.493118 -7.689982 -5.721688 0.074022 -0.001889 0.151118 0.000000 0.000000 0.000000 7.930499 18.006149 1.065101 -63.912321 42.254537 35.069384 -179.891947 -84.733319 -179.999038 -0.223799 0.598302 -0.000963 0.027004 0.103302 0.000000 0.000000 0.000000 0.000000 0.000000 0.000000 0.000000 -7.865089 -0.622904 -2.144965 67.276457 5.498212 16.185481 179.930848 71.315810 179.921163 -10.232185 6.075982 -0.606255 0.192159 -0.575788 -0.000000 0.000000 0.000000 0.000000 0.000000 0.000000 0.000000 
-0.963867 16.929876 -1.074166 -134.907874 83.158312 -105.233356 -1.841658 1.720309 10.364911 -0.912008 2.104160 -1.197570 -4.437021 2.157058 -1.429668 5.426932 -7.685948 -5.790389 0.069801 -0.001045 0.133131 0.000000 0.000000 0.000000 7.926487 18.152244 1.140558 -65.017845 41.399418 33.963950 -179.891851 -84.784592 -179.998685 -0.446405 0.253849 -0.000469 0.032996 0.116449 0.000000 0.000000 0.000000 0.000000 0.000000 0.000000 0.000000 -8.013179 -0.589446 -2.189057 67.748957 5.175995 16.261057 179.951554 71.313243 179.922537 -9.957479 6.364439 -0.615777 0.180948 -0.581945 -0.000000 0.000000 0.000000 0.000000 0.000000 0.000000 0.000000 
-0.765924 16.846018 -1.109403 -133.174217 82.944349 -103.640371 -1.807919 1.727769 10.325889 -0.898945 2.115107 -1.194067 -4.433676 2.170325 -1.362419 5.351582 -7.636198 -5.860292 0.059355 -0.000630 0.114556 0.000000 0.000000 0.000000 7.866828 18.263412 1.231156 -66.184361 40.518929 32.667713 -179.892239 -84.906868 -179.998162 -0.729412 -0.076953 0.001522 0.039584 0.129448 0.000000 0.000000 0.000000 0.000000 0.000000 0.000000 0.000000 -8.145289 -0.505390 -2.229798 68.264334 4.853332 16.289616 179.972668 71.390254 179.923982 -9.661918 6.672763 -0.624204 0.168689 -0.588214 -0.000000 0.000000 0.000000 0.000000 0.000000 0.000000 0.000000 
-0.570006 16.751862 -1.144544 -131.329810 82.728845 -101.922884 -1.763220 1.725135 10.278094 -0.884797 2.114443 -1.196137 -4.434175 2.171483 -1.311614 5.271568 -7.521768 -5.925116 0.039237 -0.001022 0.097232 0.000000 0.000000 0.000000 7.717822 18.319429 1.333491 -67.375543 39.635961 31.167782 -179.891762 -85.064939 -179.997460 -1.058043 -0.385757 0.005215 0.046345 0.142148 0.000000 0.000000 0.000000 0.000000 0.000000 0.000000 0.000000 -8.245585 -0.349907 -2.263778 68.813895 4.517853 16.253134 179.993189 71.545147 179.925438 -9.355679 6.988048 -0.630734 0.155815 -0.594307 -0.000000 0.000000 0.000000 0.000000 0.000000 0.000000 0.000000 
